<svg width="43.632" height="19.152" viewBox="0 0 237 120" fill="none" xmlns="http://www.w3.org/2000/svg">
<rect width="237" height="120" rx="60" fill="white"/>
<rect x="4.53657" y="4.53657" width="227.927" height="110.927" rx="55.4634" stroke="#0066FF" stroke-width="9.07315"/>
<path d="M134.593 0H177C210.137 0 237 26.8629 237 60C237 93.1371 210.137 120 177 120H102.407L134.593 0Z" fill="#0066FF"/>
<path fill-rule="evenodd" clip-rule="evenodd" d="M100.782 35.9795C102.665 37.506 102.954 40.2706 101.428 42.1544L69.094 82.0688C66.3607 85.4428 61.3083 85.7068 58.2385 82.6361L39.3225 63.7143C37.6086 61.9998 37.6086 59.22 39.3225 57.5055C41.0365 55.791 43.8154 55.791 45.5294 57.5055L63.2968 75.2785L94.6087 36.6264C96.1347 34.7426 98.8985 34.4529 100.782 35.9795Z" fill="#0066FF"/>
<path fill-rule="evenodd" clip-rule="evenodd" d="M145.716 34.0164C147.477 32.3505 150.255 32.4282 151.92 34.19L194.22 78.9377C195.885 80.6995 195.808 83.4782 194.047 85.1441C192.285 86.8099 189.508 86.7322 187.842 84.9705L145.542 40.2227C143.877 38.4609 143.955 35.6823 145.716 34.0164Z" fill="white"/>
<path fill-rule="evenodd" clip-rule="evenodd" d="M194.752 34.7022C196.466 36.4167 196.466 39.1964 194.752 40.9109L151.218 84.4583C149.504 86.1728 146.725 86.1728 145.011 84.4583C143.297 82.7438 143.297 79.964 145.011 78.2495L188.545 34.7022C190.259 32.9877 193.038 32.9877 194.752 34.7022Z" fill="white"/>
</svg>
